<svg height='100px' width='100px'  fill="#000000" xmlns="http://www.w3.org/2000/svg" xmlns:xlink="http://www.w3.org/1999/xlink" version="1.1" x="0px" y="0px" viewBox="0 0 100 100" enable-background="new 0 0 100 100" xml:space="preserve"><g><path d="M58.59,36.796c3.021-4.285,1.995-10.208-2.29-13.228c-4.286-3.021-10.208-1.995-13.229,2.291   c-2.311,3.279-2.311,7.658,0,10.937H58.59z"></path></g><g><path d="M56.415,46.417h1.294c0.645,0,1.167-0.522,1.167-1.167v-0.674h-16.09v0.674c0,0.645,0.522,1.167,1.167,1.167h1.295H56.415z   "></path></g><g><path d="M43.757,37.963c-1.552,0.001-2.809,1.26-2.809,2.812c0,1.176,0.734,2.228,1.837,2.635h16.09   c1.456-0.538,2.2-2.153,1.663-3.609c-0.407-1.103-1.459-1.836-2.635-1.837H43.757z"></path></g><g><path d="M65.573,68.055v-0.812c0-1.078-0.635-2.057-1.62-2.496c-1.185-0.527-2.203-1.369-2.944-2.433   c-0.103-0.147-0.185-0.308-0.245-0.477c-2.609-4.314-4.095-9.215-4.319-14.252H45.217c-0.224,5.038-1.71,9.938-4.32,14.252   c-0.06,0.169-0.142,0.329-0.244,0.477c-0.742,1.063-1.76,1.905-2.945,2.433c-0.985,0.439-1.62,1.418-1.62,2.496v0.812H65.573"></path></g><g><path d="M67.694,74.135c1.141-1.463,1.069-3.532-0.168-4.913H34.136c-1.238,1.381-1.309,3.45-0.168,4.913H67.694z"></path></g><g><path d="M33.276,75.301c-0.445,1.486,0.399,3.053,1.885,3.498c0.263,0.079,0.535,0.119,0.809,0.119h14.861h14.86   c1.553,0,2.812-1.256,2.812-2.809c0-0.273-0.039-0.547-0.118-0.809H33.276z"></path></g></svg>