<svg height='100px' width='100px'  fill="#000000" xmlns="http://www.w3.org/2000/svg" xmlns:xlink="http://www.w3.org/1999/xlink" version="1.1" x="0px" y="0px" viewBox="0 0 100 100" enable-background="new 0 0 100 100" xml:space="preserve"><g><path d="M71.73,82.779H29.59c-0.607,1.57,0.172,3.336,1.744,3.944c0.352,0.137,0.727,0.206,1.104,0.206H50.66h18.223   c1.684,0.002,3.051-1.361,3.053-3.047C71.938,83.506,71.867,83.131,71.73,82.779z"></path></g><g><path d="M70.926,81.611c1.449-1.723,1.326-4.273-0.285-5.848H30.68c-1.611,1.574-1.735,4.125-0.285,5.848H70.926z"></path></g><g><path d="M68.342,74.597v-5.489c0-1.611-1.307-2.918-2.918-2.918h-1.197H37.094h-1.196c-1.612,0-2.919,1.307-2.919,2.918v5.489   H68.342z"></path></g><g><path d="M37.094,65.023h27.132v-3.371c2.277-4.197,3.389-8.927,3.219-13.698C66.98,34.807,61.02,22.459,51.014,13.919   c-0.746-0.636-1.867-0.548-2.503,0.198c-0.273,0.321-0.425,0.73-0.425,1.153v6.34l-4.22,0.925c-3.402,0.746-5.99,3.514-6.506,6.957   l-9.25,14.181c0.01,3.029,2.473,5.477,5.502,5.468c2.653-0.009,4.92-1.916,5.383-4.529l5.355-2.605   c0.758-0.369,1.662-0.266,2.318,0.264c0.936,0.755,1.081,2.125,0.326,3.06l-7.932,9.825c-1.273,1.578-1.969,3.545-1.969,5.573   V65.023z"></path></g></svg>