<svg height='100px' width='100px'  fill="#000000" xmlns="http://www.w3.org/2000/svg" xmlns:xlink="http://www.w3.org/1999/xlink" version="1.1" x="0px" y="0px" viewBox="0 0 100 100" enable-background="new 0 0 100 100" xml:space="preserve"><g><path d="M71.998,75.779H29.859c-0.608,1.57,0.172,3.336,1.742,3.944c0.353,0.137,0.728,0.206,1.105,0.206H50.93H69.15   c1.686,0.002,3.053-1.361,3.053-3.047C72.205,76.506,72.135,76.131,71.998,75.779z"></path></g><g><path d="M30.948,68.764c-1.611,1.574-1.734,4.125-0.285,5.848h40.53c1.451-1.723,1.326-4.273-0.283-5.848H30.948z"></path></g><g><path d="M42.887,43.16c-0.277,5.857-1.568,11.621-3.822,17.035c-0.078,0.188-0.176,0.367-0.292,0.533   c-0.95,1.365-2.255,2.443-3.773,3.119c-1.065,0.476-1.751,1.533-1.751,2.699v1.05h35.361v-1.05c0-1.166-0.686-2.224-1.75-2.699   c-1.52-0.676-2.824-1.754-3.775-3.119c-0.115-0.166-0.213-0.346-0.291-0.533c-2.254-5.414-3.547-11.178-3.824-17.035H42.887z"></path></g><g><path d="M41.459,39.848v0.701c0,0.798,0.646,1.445,1.445,1.445h16.048c0.799,0,1.445-0.647,1.445-1.445v-0.701H41.459z"></path></g><g><path d="M60.398,38.681c0.912-0.247,1.658-0.903,2.02-1.776H39.439c0.362,0.873,1.107,1.529,2.02,1.776H60.398z"></path></g><g><path d="M39.208,35.737H62.65h0.809c0.574,0,1.064-0.418,1.152-0.987l2.291-14.66c0.098-0.637-0.336-1.234-0.973-1.333   c-0.061-0.009-0.121-0.014-0.18-0.014h-6.734c-0.574,0-1.062,0.419-1.152,0.987l-0.916,5.866h-1.471V19.91   c0-0.645-0.521-1.167-1.166-1.167h-6.764c-0.645,0-1.167,0.522-1.167,1.167v5.686h-1.469l-0.916-5.866   c-0.089-0.568-0.578-0.987-1.154-0.987h-6.731c-0.645,0-1.167,0.522-1.167,1.167c0,0.061,0.004,0.121,0.014,0.18l2.291,14.66   c0.088,0.568,0.578,0.987,1.153,0.987H39.208z"></path></g></svg>