<svg height='100px' width='100px'  fill="#000000" xmlns="http://www.w3.org/2000/svg" xmlns:xlink="http://www.w3.org/1999/xlink" version="1.1" x="0px" y="0px" viewBox="0 0 100 100" enable-background="new 0 0 100 100" xml:space="preserve"><g><path d="M71.598,81.779h-42.14c-0.609,1.57,0.172,3.336,1.742,3.944c0.354,0.137,0.727,0.206,1.105,0.206h18.222H68.75   c1.684,0.002,3.051-1.361,3.053-3.047C71.805,82.506,71.734,82.131,71.598,81.779z"></path></g><g><path d="M70.791,80.611c1.451-1.723,1.328-4.273-0.283-5.848H30.546c-1.61,1.574-1.734,4.125-0.284,5.848H70.791z"></path></g><g><path d="M68.209,73.597v-1.05c0-1.166-0.688-2.224-1.752-2.699c-1.52-0.676-2.824-1.754-3.773-3.119   c-0.117-0.166-0.215-0.346-0.293-0.533c-2.252-5.414-3.547-11.178-3.822-17.035H42.487c-0.277,5.857-1.57,11.621-3.823,17.035   c-0.078,0.188-0.177,0.367-0.292,0.533c-0.95,1.365-2.256,2.443-3.773,3.119c-1.066,0.476-1.752,1.533-1.752,2.699v1.05H68.209z"></path></g><g><path d="M58.553,47.994c0.797,0,1.443-0.647,1.443-1.445v-0.701H41.057v0.701c0,0.798,0.646,1.445,1.443,1.445H58.553z"></path></g><g><path d="M40.723,37.557H60.33c1.764-3.597,1.42-7.871-0.9-11.136c-1.525-2.548-3.402-4.868-5.576-6.891   c1.365-1.838,0.98-4.433-0.857-5.796c-1.838-1.364-4.433-0.979-5.796,0.858c-1.088,1.466-1.088,3.472,0,4.938   c-2.174,2.023-4.051,4.342-5.575,6.891C39.304,29.686,38.959,33.96,40.723,37.557z"></path></g><g><path d="M59.996,44.681c1.627-0.44,2.588-2.115,2.146-3.741c-0.314-1.163-1.285-2.031-2.477-2.216H41.387   c-1.664,0.258-2.803,1.816-2.545,3.481c0.184,1.19,1.052,2.161,2.215,2.477H59.996z"></path></g></svg>