<svg height='100px' width='100px'  fill="#000000" xmlns="http://www.w3.org/2000/svg" xmlns:xlink="http://www.w3.org/1999/xlink" version="1.1" x="0px" y="0px" viewBox="0 0 100 100" enable-background="new 0 0 100 100" xml:space="preserve"><g><path d="M42.592,32.285c-0.779-5.898-2.957-11.524-6.351-16.41c-0.185-0.266-0.249-0.598-0.175-0.915   c0.145-0.617,0.761-1,1.378-0.856c2.626,0.613,5.079,1.815,7.173,3.516c0.819-1.234,1.764-2.381,2.816-3.422   c-1.106-1.485-1.106-3.52,0-5.005c1.381-1.855,4.005-2.239,5.861-0.857c1.855,1.382,2.24,4.006,0.857,5.862   c1.055,1.041,1.998,2.188,2.816,3.422c2.094-1.701,4.547-2.903,7.174-3.516c0.316-0.074,0.648-0.01,0.914,0.175   c0.521,0.361,0.65,1.076,0.289,1.596c-3.395,4.886-5.572,10.512-6.35,16.41H42.592z"></path></g><g><path d="M58.859,33.452h0.605c1.377,0,2.584,0.923,2.943,2.252c0.441,1.625-0.52,3.3-2.145,3.741h-18.94   c-1.329-0.36-2.251-1.566-2.251-2.944c0-1.684,1.365-3.049,3.049-3.049h0.605H58.859z"></path></g><g><path d="M60.264,40.612v0.701c0,0.798-0.646,1.445-1.445,1.445h-16.05c-0.797,0-1.444-0.647-1.444-1.445v-0.701H60.264z"></path></g><g><path d="M33.112,80.168v-1.049c0-1.168,0.688-2.225,1.752-2.699c1.519-0.678,2.824-1.756,3.775-3.119   c0.115-0.166,0.213-0.346,0.291-0.533c2.301-5.531,3.601-11.426,3.838-17.41V43.925h16.05v11.432   c0.238,5.984,1.537,11.879,3.838,17.41c0.078,0.188,0.176,0.367,0.293,0.533c0.951,1.363,2.256,2.441,3.773,3.119   c1.066,0.475,1.752,1.531,1.752,2.699v1.049H33.112z"></path></g><g><path d="M30.53,87.184c-1.451-1.725-1.327-4.273,0.283-5.848h39.96c1.611,1.574,1.734,4.123,0.285,5.848H30.53z"></path></g><g><path d="M29.723,88.35h42.14c0.137,0.354,0.207,0.727,0.207,1.105c-0.004,1.684-1.369,3.049-3.055,3.045H50.793H32.571   c-0.377,0.002-0.752-0.068-1.104-0.205C29.895,91.688,29.116,89.92,29.723,88.35z"></path></g></svg>