<svg height='100px' width='100px'  fill="#000000" xmlns="http://www.w3.org/2000/svg" xmlns:xlink="http://www.w3.org/1999/xlink" version="1.1" x="0px" y="0px" viewBox="0 0 100 100" enable-background="new 0 0 100 100" xml:space="preserve"><path d="M50.235,92.5H32.013c-0.867,0.002-1.693-0.365-2.272-1.01c-1.126-1.254-1.023-3.182,0.229-4.307  c-0.497-0.59-0.825-1.303-0.952-2.062c-0.391-2.344,1.192-4.562,3.536-4.953v-1.049c0-1.168,0.687-2.225,1.752-2.699  c1.518-0.678,2.823-1.756,3.773-3.119c0.117-0.166,0.215-0.346,0.293-0.533c2.3-5.531,3.6-11.426,3.838-17.41V42.758  c-0.798,0-1.445-0.647-1.445-1.445v-1.868c-1.329-0.36-2.252-1.566-2.252-2.944c0-1.684,1.365-3.049,3.05-3.049h0.605  c-0.632-6.315-2.864-12.364-6.485-17.577c-0.185-0.266-0.249-0.598-0.174-0.915c0.143-0.617,0.76-1,1.377-0.856  c2.627,0.613,5.08,1.815,7.173,3.516c0.819-1.234,1.763-2.381,2.817-3.422c-1.106-1.485-1.106-3.52,0-5.005  c1.382-1.855,4.006-2.239,5.862-0.857c1.855,1.382,2.239,4.006,0.857,5.862c1.054,1.041,1.998,2.188,2.816,3.422  c2.094-1.701,4.547-2.903,7.173-3.516c0.316-0.074,0.648-0.01,0.916,0.175c0.52,0.361,0.648,1.076,0.287,1.596  c-3.621,5.212-5.854,11.262-6.485,17.577h0.605c1.377,0,2.583,0.923,2.943,2.252c0.44,1.625-0.521,3.3-2.146,3.741v1.868  c0,0.798-0.647,1.445-1.445,1.445v12.599c0.238,5.984,1.538,11.879,3.839,17.41c0.078,0.188,0.176,0.367,0.292,0.533  c0.951,1.363,2.256,2.441,3.774,3.119c1.065,0.475,1.751,1.531,1.751,2.699v1.049c0.761,0.127,1.474,0.457,2.063,0.953  c1.817,1.531,2.051,4.244,0.521,6.062c0.645,0.578,1.012,1.406,1.011,2.271c-0.002,1.684-1.369,3.049-3.054,3.045H50.235z   M50.235,81.859H33.262c-1.409,0-2.552,1.145-2.552,2.553c0,1.41,1.143,2.553,2.552,2.553h16.974h16.973  c1.409,0,2.552-1.143,2.552-2.553c0-1.408-1.143-2.553-2.552-2.553H50.235 M50.235,88.152H32.009c-0.717,0-1.299,0.582-1.299,1.299  s0.582,1.299,1.299,1.299c0.002,0,18.227,0,18.227,0H68.46c0.717,0.002,1.3-0.58,1.3-1.297c0.002-0.717-0.58-1.301-1.297-1.301  C68.461,88.152,50.235,88.152,50.235,88.152z M50.235,41.008h7.719v-2.019h-7.719h-7.719v2.019H50.235z M58.905,37.801  c0.718,0.001,1.3-0.58,1.301-1.297s-0.58-1.3-1.299-1.301h-8.672h-8.672c-0.717,0-1.299,0.582-1.299,1.299  c0,0.717,0.582,1.299,1.301,1.299h8.671H58.905z M50.235,80.672h15.931v-1.553c0-0.475-0.28-0.906-0.714-1.1  c-1.81-0.807-3.364-2.094-4.497-3.719c-0.188-0.27-0.347-0.559-0.473-0.861c-2.385-5.732-3.73-11.844-3.973-18.047V42.196h-6.274  H43.96v13.196c-0.243,6.203-1.587,12.314-3.972,18.047c-0.126,0.303-0.285,0.592-0.473,0.861c-1.133,1.625-2.688,2.912-4.498,3.719  c-0.434,0.193-0.714,0.625-0.714,1.1v1.553H50.235 M52.604,11.117c-0.32-1.308-1.64-2.109-2.948-1.789  c-1.308,0.32-2.109,1.64-1.789,2.948c0.216,0.884,0.906,1.574,1.789,1.79c-2.149,1.72-3.918,3.869-5.193,6.31  c-1.779-1.871-3.984-3.285-6.427-4.121c3.392,5.351,5.431,11.446,5.941,17.761h6.259h6.258c0.511-6.314,2.551-12.41,5.942-17.761  c-2.443,0.836-4.648,2.25-6.428,4.121c-1.275-2.441-3.043-4.589-5.193-6.31C52.123,13.745,52.924,12.425,52.604,11.117z"></path></svg>