<svg height='100px' width='100px'  fill="#000000" xmlns="http://www.w3.org/2000/svg" xmlns:xlink="http://www.w3.org/1999/xlink" version="1.1" x="0px" y="0px" viewBox="0 0 100 100" enable-background="new 0 0 100 100" xml:space="preserve"><path d="M60.398,38.842v1.868c0,0.798-0.646,1.444-1.445,1.444v0.792c0.238,5.985,1.539,11.879,3.84,17.411  c0.078,0.188,0.176,0.365,0.291,0.533c0.951,1.363,2.256,2.441,3.775,3.119c1.064,0.475,1.75,1.531,1.75,2.698v1.05  c0.762,0.127,1.473,0.455,2.064,0.953c1.818,1.529,2.051,4.244,0.52,6.062c0.645,0.579,1.012,1.405,1.01,2.272  c0,1.684-1.367,3.047-3.053,3.045H50.93H32.707c-0.866,0.002-1.693-0.366-2.272-1.011c-1.125-1.253-1.023-3.181,0.229-4.307  c-0.496-0.59-0.825-1.302-0.952-2.063c-0.391-2.344,1.192-4.561,3.536-4.951v-1.05c0-1.167,0.686-2.224,1.751-2.698  c1.518-0.678,2.824-1.756,3.773-3.119c0.117-0.168,0.214-0.346,0.292-0.533c2.301-5.531,3.601-11.426,3.839-17.411v-0.792  c-0.799,0-1.445-0.646-1.445-1.444v-1.868c-1.33-0.36-2.252-1.566-2.252-2.943h-0.808c-0.575,0-1.064-0.419-1.153-0.987  L34.956,20.25c-0.01-0.059-0.014-0.12-0.014-0.18c0-0.645,0.522-1.167,1.167-1.167h6.731c0.576,0,1.065,0.418,1.154,0.987  l0.916,5.866h1.469v-5.686c0-0.645,0.522-1.167,1.167-1.167h6.764c0.645,0,1.166,0.522,1.166,1.167v5.686h1.471l0.916-5.866  c0.09-0.568,0.578-0.987,1.152-0.987h6.734c0.059,0,0.119,0.004,0.18,0.014c0.637,0.099,1.07,0.696,0.973,1.333l-2.291,14.661  c-0.088,0.568-0.578,0.987-1.152,0.987H62.65C62.65,37.275,61.727,38.481,60.398,38.842z M50.93,69.449H33.956  c-1.41,0-2.552,1.143-2.552,2.553c0,1.408,1.142,2.551,2.552,2.551H50.93h16.973c1.41,0,2.551-1.143,2.551-2.551  c0-1.41-1.141-2.553-2.551-2.553H50.93 M50.93,40.404h7.719v-2.019H50.93H43.21v2.019H50.93z M50.93,75.742H32.703  c-0.717,0-1.298,0.581-1.298,1.299c0,0.717,0.581,1.299,1.298,1.299c0.001,0,18.227,0,18.227,0h18.223  c0.719,0.001,1.301-0.58,1.301-1.297c0.002-0.719-0.578-1.301-1.297-1.301C69.154,75.742,50.93,75.742,50.93,75.742z M50.93,68.262  h15.93v-1.554c0-0.476-0.279-0.906-0.715-1.1c-1.809-0.807-3.363-2.092-4.496-3.718c-0.188-0.27-0.346-0.559-0.473-0.861  c-2.385-5.732-3.73-11.844-3.973-18.048v-1.389H50.93h-6.275v1.389c-0.242,6.204-1.588,12.316-3.973,18.048  c-0.127,0.303-0.285,0.592-0.473,0.861c-1.133,1.626-2.688,2.911-4.498,3.718c-0.434,0.193-0.714,0.624-0.714,1.1v1.554H50.93   M62.871,34.709l2.195-14.055h-5.551l-1.07,6.853h-4.719v-6.853h-5.597v6.853h-4.717l-1.07-6.853H36.79l2.197,14.055H62.871z   M42.258,37.197h8.671h8.67c0.717,0.001,1.299-0.58,1.299-1.299H40.958C40.958,36.615,41.54,37.197,42.258,37.197z"></path></svg>