<svg height='100px' width='100px'  fill="#000000" xmlns="http://www.w3.org/2000/svg" xmlns:xlink="http://www.w3.org/1999/xlink" version="1.1" x="0px" y="0px" viewBox="0 0 100 100" enable-background="new 0 0 100 100" xml:space="preserve"><path d="M67.694,74.295c0.52,0.526,0.811,1.236,0.81,1.976c-0.001,1.552-1.26,2.81-2.812,2.808h-14.86H35.97  c-0.739,0.001-1.449-0.29-1.976-0.809c-1.104-1.09-1.117-2.869-0.027-3.975c-0.335-0.43-0.575-0.926-0.703-1.455  c-0.497-2.057,0.768-4.127,2.824-4.625v-0.811c0-1.08,0.635-2.057,1.62-2.496c1.185-0.528,2.203-1.369,2.945-2.434  c0.102-0.146,0.185-0.308,0.244-0.477c2.815-4.652,4.318-9.98,4.35-15.42h-1.295c-0.645,0-1.167-0.522-1.167-1.167V43.57  c-1.104-0.408-1.837-1.459-1.837-2.636c0-1.552,1.258-2.81,2.81-2.81h0.284c-3.606-3.688-3.606-9.583,0-13.271  c3.665-3.749,9.675-3.817,13.424-0.152s3.817,9.675,0.152,13.424h0.284c1.176,0,2.229,0.733,2.636,1.837  c0.537,1.456-0.207,3.072-1.663,3.609v1.841c0,0.645-0.522,1.167-1.167,1.167h-1.294c0.031,5.439,1.534,10.768,4.349,15.42  c0.061,0.169,0.143,0.33,0.245,0.477c0.741,1.064,1.76,1.905,2.944,2.434c0.985,0.439,1.62,1.416,1.62,2.496v0.811  c0.529,0.129,1.025,0.367,1.455,0.703C68.697,70.219,68.996,72.626,67.694,74.295z M50.831,69.858H36.989  c-1.149,0-2.081,0.933-2.081,2.081c0,1.149,0.932,2.081,2.081,2.081h13.842h13.842c1.149,0,2.081-0.932,2.081-2.081  c0-1.148-0.932-2.081-2.081-2.081H50.831 M50.831,44.828h6.295v-1.646h-6.295h-6.295v1.646H50.831z M50.831,75.209H35.968  c-0.585,0-1.06,0.475-1.06,1.06s0.474,1.06,1.06,1.06c0.001,0,14.863,0,14.863,0h14.861c0.586,0,1.061-0.473,1.062-1.059  c0-0.585-0.474-1.06-1.059-1.061C65.694,75.209,50.831,75.209,50.831,75.209z M50.831,68.67h12.991v-1.266  c0-0.389-0.229-0.74-0.582-0.897c-1.476-0.657-2.744-1.706-3.668-3.031c-0.153-0.22-0.282-0.456-0.385-0.703  c-3.028-5.06-4.593-10.86-4.521-16.756h-7.671c0.072,5.896-1.493,11.696-4.521,16.756c-0.103,0.247-0.232,0.483-0.386,0.703  c-0.924,1.325-2.191,2.374-3.667,3.031c-0.354,0.157-0.582,0.509-0.582,0.897v1.266H50.831 M57.901,41.994  c0.585,0,1.06-0.473,1.062-1.058c0-0.585-0.474-1.06-1.06-1.061h-7.072h-7.072c-0.585,0-1.06,0.474-1.06,1.059  c0,0.585,0.475,1.06,1.061,1.06h7.071H57.901z M58.028,28.637c-1.575-3.976-6.074-5.921-10.049-4.346  c-3.976,1.575-5.921,6.075-4.346,10.05c0.787,1.986,2.359,3.559,4.346,4.346h5.704C57.658,37.111,59.604,32.611,58.028,28.637z"></path></svg>