<svg height='100px' width='100px'  fill="#000000" xmlns="http://www.w3.org/2000/svg" xmlns:xlink="http://www.w3.org/1999/xlink" version="1.1" x="0px" y="0px" viewBox="0 0 100 100" enable-background="new 0 0 100 100" xml:space="preserve"><path d="M32.305,86.09c-0.867,0.002-1.693-0.366-2.273-1.011c-1.125-1.253-1.023-3.181,0.23-4.307  c-0.497-0.59-0.825-1.302-0.951-2.063c-0.393-2.344,1.191-4.561,3.535-4.951v-1.05c0-1.167,0.686-2.224,1.752-2.698  c1.518-0.678,2.823-1.756,3.773-3.119c0.115-0.168,0.214-0.346,0.292-0.533c2.3-5.531,3.601-11.426,3.837-17.411v-0.792  c-0.797,0-1.443-0.646-1.443-1.444v-1.868c-1.163-0.315-2.031-1.286-2.215-2.477c-0.258-1.665,0.881-3.223,2.545-3.48  c-2.458-3.76-2.363-8.642,0.237-12.303c1.524-2.548,3.401-4.868,5.575-6.891c-1.088-1.466-1.088-3.472,0-4.938  c1.363-1.838,3.958-2.222,5.796-0.858c1.838,1.363,2.223,3.959,0.857,5.796c2.174,2.022,4.051,4.342,5.576,6.891  c2.602,3.662,2.695,8.543,0.236,12.303c1.191,0.184,2.162,1.053,2.477,2.216c0.441,1.626-0.52,3.301-2.146,3.741v1.868  c0,0.798-0.646,1.444-1.443,1.444v0.792c0.236,5.985,1.537,11.879,3.838,17.411c0.078,0.188,0.176,0.365,0.293,0.533  c0.949,1.363,2.254,2.441,3.773,3.119c1.064,0.475,1.752,1.531,1.752,2.698v1.05c0.76,0.127,1.473,0.455,2.062,0.953  c1.816,1.529,2.049,4.244,0.52,6.062c0.646,0.579,1.014,1.405,1.012,2.272c-0.002,1.684-1.369,3.047-3.053,3.045H50.527H32.305z   M50.527,75.449H33.554c-1.409,0-2.552,1.143-2.552,2.553c0,1.408,1.143,2.551,2.552,2.551h16.973H67.5  c1.41,0,2.553-1.143,2.553-2.551c0-1.41-1.143-2.553-2.553-2.553H50.527 M50.527,46.404h7.719v-2.019h-7.719h-7.718v2.019H50.527z   M51.031,19.561c1.291-0.278,2.113-1.551,1.836-2.843c-0.279-1.292-1.553-2.114-2.843-1.835c-1.293,0.277-2.114,1.551-1.836,2.842  c0.197,0.919,0.916,1.638,1.836,1.836c-2.77,2.225-5.117,4.927-6.934,7.98c-2.639,3.657-2.227,8.69,0.973,11.87h12.929  c3.197-3.18,3.609-8.213,0.969-11.87C56.146,24.488,53.799,21.786,51.031,19.561z M50.527,81.742H32.301  c-0.719,0-1.299,0.581-1.299,1.299c0,0.717,0.58,1.299,1.299,1.299c0.002,0,18.226,0,18.226,0h18.225  c0.717,0.001,1.299-0.58,1.301-1.297c0-0.719-0.58-1.301-1.299-1.301H50.527z M50.527,74.262h15.93v-1.554  c0-0.476-0.279-0.906-0.713-1.1c-1.811-0.807-3.365-2.092-4.498-3.718c-0.188-0.27-0.348-0.559-0.473-0.861  c-2.383-5.732-3.73-11.844-3.973-18.048v-1.389h-6.273h-6.275v1.389c-0.242,6.205-1.588,12.316-3.973,18.048  c-0.125,0.303-0.284,0.592-0.473,0.861c-1.133,1.626-2.688,2.911-4.496,3.718c-0.436,0.193-0.715,0.624-0.715,1.1v1.554H50.527   M59.197,43.197c0.717,0.001,1.301-0.58,1.301-1.297c0.002-0.718-0.58-1.3-1.299-1.301h-8.672h-8.671  c-0.719,0-1.301,0.582-1.301,1.299c0,0.717,0.582,1.299,1.303,1.299h8.669H59.197z"></path></svg>