<svg height='100px' width='100px'  fill="#000000" xmlns="http://www.w3.org/2000/svg" xmlns:xlink="http://www.w3.org/1999/xlink" version="1.1" x="0px" y="0px" viewBox="0 0 100 100" enable-background="new 0 0 100 100" xml:space="preserve"><path d="M30.189,96.49c-1.126-1.254-1.022-3.182,0.23-4.307c-0.497-0.59-0.827-1.303-0.953-2.062  c-0.391-2.344,1.192-4.562,3.536-4.953v-1.049c0-1.168,0.686-2.225,1.751-2.699c1.519-0.678,2.823-1.756,3.773-3.119  c0.117-0.166,0.215-0.346,0.293-0.533c2.301-5.531,3.601-11.426,3.838-17.41V47.758c-0.797,0-1.444-0.647-1.444-1.445v-1.868  c-1.329-0.36-2.253-1.566-2.253-2.944c0-1.684,1.366-3.049,3.051-3.049h0.604c-0.657-6.575-3.048-12.856-6.93-18.204  c3.274-2.168,6.978-3.602,10.859-4.2c0.18-1.147,0.828-2.169,1.789-2.82v-1.756h-2.757c-0.644,0-1.167-0.522-1.167-1.167V7.939  c0-0.645,0.523-1.167,1.167-1.167h2.757V3.768c0-0.645,0.523-1.167,1.166-1.167h2.367c0.645,0,1.166,0.523,1.166,1.167v3.005h2.756  c0.645,0,1.168,0.522,1.168,1.167v2.365c0,0.645-0.523,1.167-1.168,1.167h-2.756v1.756c0.961,0.651,1.609,1.673,1.789,2.82  c3.881,0.598,7.586,2.032,10.859,4.2c-3.881,5.348-6.273,11.629-6.932,18.204h0.605c1.379,0,2.584,0.923,2.943,2.252  c0.441,1.625-0.52,3.3-2.145,3.741v1.868c0,0.798-0.648,1.445-1.445,1.445v12.599c0.238,5.984,1.537,11.879,3.838,17.41  c0.078,0.188,0.176,0.367,0.293,0.533c0.949,1.363,2.254,2.441,3.773,3.119c1.066,0.475,1.752,1.531,1.752,2.699v1.049  c0.76,0.127,1.473,0.457,2.062,0.953c1.818,1.531,2.051,4.244,0.52,6.062c0.646,0.578,1.014,1.406,1.014,2.271  c-0.004,1.684-1.371,3.049-3.055,3.045H32.462C31.595,97.502,30.769,97.135,30.189,96.49z M50.684,85.672h15.932v-1.553  c0-0.475-0.279-0.906-0.715-1.1c-1.809-0.807-3.363-2.094-4.498-3.719c-0.188-0.27-0.346-0.559-0.473-0.861  c-2.383-5.732-3.729-11.844-3.971-18.047V47.196h-6.275h-6.275v13.196c-0.242,6.203-1.588,12.314-3.972,18.047  c-0.126,0.303-0.284,0.592-0.473,0.861c-1.133,1.625-2.688,2.912-4.498,3.719c-0.434,0.193-0.713,0.625-0.713,1.1v1.553H50.684   M58.402,46.008v-2.019h-7.719h-7.718v2.019h7.718H58.402z M59.354,42.801c0.719,0.001,1.301-0.58,1.303-1.297  c0-0.717-0.58-1.3-1.299-1.301c-0.002,0-8.674,0-8.674,0h-8.671c-0.717,0-1.299,0.582-1.299,1.299c0,0.717,0.582,1.299,1.299,1.299  C42.014,42.801,59.354,42.801,59.354,42.801z M38.175,20.774c3.574,5.462,5.724,11.733,6.251,18.24h6.257h6.258  c0.527-6.507,2.676-12.778,6.25-18.24c-3.145-1.78-6.637-2.868-10.236-3.191c0.49-1.254-0.129-2.668-1.385-3.159  c-0.094-0.037-0.189-0.067-0.287-0.093V9.721h3.924V8.523h-3.924V4.351h-1.198v4.172h-3.923v1.198h3.923v4.611  c-1.306,0.331-2.095,1.658-1.766,2.963c0.024,0.098,0.056,0.194,0.093,0.289C44.812,17.906,41.321,18.994,38.175,20.774z   M50.684,86.859H33.71c-1.409,0-2.551,1.145-2.551,2.553c0,1.41,1.142,2.553,2.551,2.553h16.973h16.973  c1.41,0,2.553-1.143,2.553-2.553c0-1.408-1.143-2.553-2.553-2.553H50.684 M50.684,93.152H32.458c-0.717,0-1.298,0.582-1.298,1.299  s0.581,1.299,1.298,1.299c0.002,0,18.226,0,18.226,0h18.225c0.717,0.002,1.301-0.58,1.301-1.297c0.002-0.717-0.58-1.301-1.297-1.301  C68.91,93.152,50.684,93.152,50.684,93.152z"></path></svg>