<svg height='100px' width='100px'  fill="#000000" xmlns="http://www.w3.org/2000/svg" xmlns:xlink="http://www.w3.org/1999/xlink" version="1.1" x="0px" y="0px" viewBox="0 0 100 100" enable-background="new 0 0 100 100" xml:space="preserve"><path d="M70.404,74.711c1.818,1.529,2.051,4.244,0.521,6.062c0.645,0.579,1.012,1.405,1.01,2.272  c-0.002,1.684-1.369,3.047-3.053,3.045H50.66H32.438c-0.867,0.002-1.692-0.366-2.271-1.011c-1.127-1.253-1.023-3.181,0.229-4.307  c-0.496-0.59-0.824-1.302-0.951-2.063c-0.391-2.344,1.191-4.561,3.535-4.951v-5.489c0-1.611,1.307-2.917,2.919-2.917h1.196v-5.463  c0-2.028,0.695-3.995,1.969-5.573l7.932-9.825c0.755-0.935,0.609-2.305-0.326-3.06c-0.656-0.53-1.561-0.632-2.318-0.264  l-5.355,2.605c-0.463,2.613-2.729,4.521-5.383,4.529c-3.029,0.01-5.492-2.438-5.502-5.467l9.25-14.181  c0.516-3.443,3.104-6.211,6.506-6.957l4.22-0.925v-6.34c0-0.422,0.151-0.831,0.425-1.152c0.637-0.746,1.758-0.834,2.503-0.198  C61.02,21.62,66.98,33.968,67.445,47.115c0.17,4.771-0.941,9.501-3.219,13.697v4.539h1.197c1.611,0,2.918,1.306,2.918,2.917v5.489  C69.102,73.885,69.814,74.213,70.404,74.711z M50.66,75.449H33.687c-1.409,0-2.552,1.143-2.552,2.553  c0,1.408,1.143,2.551,2.552,2.551H50.66h16.973c1.41,0,2.553-1.143,2.553-2.551c0-1.41-1.143-2.553-2.553-2.553H50.66 M50.66,81.742  H32.434c-0.717,0-1.299,0.581-1.299,1.299c0,0.717,0.582,1.299,1.299,1.299c0.002,0,18.226,0,18.226,0h18.225  c0.717,0.001,1.299-0.58,1.301-1.297c0.002-0.719-0.58-1.301-1.297-1.301C68.887,81.742,50.66,81.742,50.66,81.742z M34.731,74.262  h31.861v-5.993c0-0.645-0.521-1.167-1.168-1.167H35.898c-0.646,0-1.167,0.522-1.167,1.167V74.262z M38.844,65.912h23.632v-5.551  c2.268-4.014,3.383-8.576,3.221-13.184c-0.449-12.675-6.205-24.578-15.861-32.8v7.802l-5.598,1.227  c-2.82,0.618-4.919,2.989-5.191,5.864l-9.156,14.035c0.271,2.045,2.147,3.483,4.191,3.213c1.925-0.254,3.334-1.94,3.242-3.88  l6.26-3.045c1.369-0.666,3-0.48,4.184,0.476c1.688,1.362,1.95,3.834,0.588,5.521l-7.93,9.825c-1.023,1.267-1.582,2.846-1.582,4.474  V65.912z"></path></svg>